<svg xmlns="http://www.w3.org/2000/svg" viewBox="0 0 15872 512" width="15872" height="512"><path d="M372.364 116.364H139.636C62.641 116.364 0 179.005 0 256s62.641 139.636 139.636 139.636h232.727C449.359 395.636 512 332.995 512 256s-62.641-139.636-139.636-139.636z" fill="#a4e276"/><path d="M372.364 139.636c-30.85 0-60.468 12.268-82.282 34.082C268.268 195.532 256 225.15 256 256c0 30.85 12.268 60.468 34.082 82.282 21.814 21.814 51.432 34.082 82.282 34.082 30.85 0 60.468-12.268 82.282-34.082 21.814-21.814 34.082-51.432 34.082-82.282 0-30.85-12.268-60.468-34.082-82.282-21.814-21.814-51.432-34.082-82.282-34.082z" fill="#ffffff"/><path d="M372.364 395.636c-76.995 0-139.636-62.641-139.636-139.636s62.641-139.636 139.636-139.636S512 179.005 512 256s-62.641 139.636-139.636 139.636zm0-232.727c-51.33 0-93.091 41.761-93.091 93.091 0 51.33 41.761 93.091 93.091 93.091 51.33 0 93.091-41.761 93.091-93.091 0-51.33-41.761-93.091-93.091-93.091z" fill="#a9a8ae"/><path d="M884.364 116.364H651.636C574.641 116.364 512 179.005 512 256s62.641 139.636 139.636 139.636h232.727C961.359 395.636 1024 332.995 1024 256s-62.641-139.636-139.636-139.636z" fill="#a4e276"/><path d="M881.757 139.636c-30.85 0-60.468 12.268-82.282 34.082-21.814 21.814-34.082 51.432-34.082 82.282 0 30.85 12.268 60.468 34.082 82.282 21.814 21.814 51.432 34.082 82.282 34.082 30.85 0 60.468-12.268 82.282-34.082 21.814-21.814 34.082-51.432 34.082-82.282 0-30.85-12.268-60.468-34.082-82.282-21.814-21.814-51.432-34.082-82.282-34.082z" fill="#ffffff"/><path d="M881.757 395.636c-76.995 0-139.636-62.641-139.636-139.636s62.641-139.636 139.636-139.636S1021.393 179.005 1021.393 256s-62.641 139.636-139.636 139.636zm0-232.727c-51.33 0-93.091 41.761-93.091 93.091 0 51.33 41.761 93.091 93.091 93.091 51.33 0 93.091-41.761 93.091-93.091 0-51.33-41.761-93.091-93.091-93.091z" fill="#a9a8ae"/><path d="M1396.364 116.364h-232.728C1086.641 116.364 1024 179.005 1024 256s62.641 139.636 139.636 139.636h232.727C1473.359 395.636 1536 332.995 1536 256s-62.641-139.636-139.636-139.636z" fill="#a4e176"/><path d="M1385.936 139.636c-30.85 0-60.468 12.268-82.282 34.082-21.814 21.814-34.082 51.432-34.082 82.282 0 30.85 12.268 60.468 34.082 82.282 21.814 21.814 51.432 34.082 82.282 34.082 30.85 0 60.468-12.268 82.282-34.082 21.814-21.814 34.082-51.432 34.082-82.282 0-30.85-12.268-60.468-34.082-82.282-21.814-21.814-51.432-34.082-82.282-34.082z" fill="#ffffff"/><path d="M1385.936 395.636c-76.995 0-139.636-62.641-139.636-139.636s62.641-139.636 139.636-139.636S1525.572 179.005 1525.572 256s-62.641 139.636-139.636 139.636zm0-232.727c-51.33 0-93.091 41.761-93.091 93.091 0 51.33 41.761 93.091 93.091 93.091 51.33 0 93.091-41.761 93.091-93.091 0-51.33-41.761-93.091-93.091-93.091z" fill="#a9a8ae"/><path d="M1908.364 116.364h-232.728C1598.641 116.364 1536 179.005 1536 256s62.641 139.636 139.636 139.636h232.727C1985.359 395.636 2048 332.995 2048 256s-62.641-139.636-139.636-139.636z" fill="#a3df76"/><path d="M1884.901 139.636c-30.85 0-60.468 12.268-82.282 34.082-21.814 21.814-34.082 51.432-34.082 82.282 0 30.85 12.268 60.468 34.082 82.282 21.814 21.814 51.432 34.082 82.282 34.082 30.85 0 60.468-12.268 82.282-34.082 21.814-21.814 34.082-51.432 34.082-82.282 0-30.85-12.268-60.468-34.082-82.282-21.814-21.814-51.432-34.082-82.282-34.082z" fill="#ffffff"/><path d="M1884.901 395.636c-76.995 0-139.636-62.641-139.636-139.636s62.641-139.636 139.636-139.636S2024.537 179.005 2024.537 256s-62.641 139.636-139.636 139.636zm0-232.727c-51.33 0-93.091 41.761-93.091 93.091 0 51.33 41.761 93.091 93.091 93.091 51.33 0 93.091-41.761 93.091-93.091 0-51.33-41.761-93.091-93.091-93.091z" fill="#a9a8ae"/><path d="M2420.364 116.364h-232.728C2110.641 116.364 2048 179.005 2048 256s62.641 139.636 139.636 139.636h232.727C2497.359 395.636 2560 332.995 2560 256s-62.641-139.636-139.636-139.636z" fill="#a2dd76"/><path d="M2378.652 139.636c-30.85 0-60.468 12.268-82.282 34.082-21.814 21.814-34.082 51.432-34.082 82.282 0 30.85 12.268 60.468 34.082 82.282 21.814 21.814 51.432 34.082 82.282 34.082 30.85 0 60.468-12.268 82.282-34.082 21.814-21.814 34.082-51.432 34.082-82.282 0-30.85-12.268-60.468-34.082-82.282-21.814-21.814-51.432-34.082-82.282-34.082z" fill="#ffffff"/><path d="M2378.652 395.636c-76.995 0-139.636-62.641-139.636-139.636s62.641-139.636 139.636-139.636S2518.288 179.005 2518.288 256s-62.641 139.636-139.636 139.636zm0-232.727c-51.33 0-93.091 41.761-93.091 93.091 0 51.33 41.761 93.091 93.091 93.091 51.33 0 93.091-41.761 93.091-93.091 0-51.33-41.761-93.091-93.091-93.091z" fill="#a9a8ae"/><path d="M2932.364 116.364h-232.728C2622.641 116.364 2560 179.005 2560 256s62.641 139.636 139.636 139.636h232.727C3009.359 395.636 3072 332.995 3072 256s-62.641-139.636-139.636-139.636z" fill="#a0d977"/><path d="M2867.188 139.636c-30.85 0-60.468 12.268-82.282 34.082-21.814 21.814-34.082 51.432-34.082 82.282 0 30.85 12.268 60.468 34.082 82.282 21.814 21.814 51.432 34.082 82.282 34.082 30.85 0 60.468-12.268 82.282-34.082 21.814-21.814 34.082-51.432 34.082-82.282 0-30.85-12.268-60.468-34.082-82.282-21.814-21.814-51.432-34.082-82.282-34.082z" fill="#ffffff"/><path d="M2867.188 395.636c-76.995 0-139.636-62.641-139.636-139.636s62.641-139.636 139.636-139.636S3006.825 179.005 3006.825 256s-62.641 139.636-139.637 139.636zm0-232.727c-51.33 0-93.091 41.761-93.091 93.091 0 51.33 41.761 93.091 93.091 93.091 51.33 0 93.091-41.761 93.091-93.091 0-51.33-41.76-93.091-93.091-93.091z" fill="#a9a8ae"/><path d="M3444.364 116.364h-232.728C3134.641 116.364 3072 179.005 3072 256s62.641 139.636 139.636 139.636h232.727C3521.359 395.636 3584 332.995 3584 256s-62.641-139.636-139.636-139.636z" fill="#9ed377"/><path d="M3350.511 139.636c-30.85 0-60.468 12.268-82.282 34.082-21.814 21.814-34.082 51.432-34.082 82.282 0 30.85 12.268 60.468 34.082 82.282 21.814 21.814 51.432 34.082 82.282 34.082 30.85 0 60.468-12.268 82.282-34.082 21.814-21.814 34.082-51.432 34.082-82.282 0-30.85-12.268-60.468-34.082-82.282-21.814-21.814-51.432-34.082-82.282-34.082z" fill="#ffffff"/><path d="M3350.511 395.636c-76.995 0-139.636-62.641-139.636-139.636s62.641-139.636 139.636-139.636S3490.147 179.005 3490.147 256s-62.641 139.636-139.636 139.636zm0-232.727c-51.33 0-93.091 41.761-93.091 93.091 0 51.33 41.761 93.091 93.091 93.091 51.33 0 93.091-41.761 93.091-93.091 0-51.33-41.761-93.091-93.091-93.091z" fill="#a9a8ae"/><path d="M3956.364 116.364h-232.728C3646.641 116.364 3584 179.005 3584 256s62.641 139.636 139.636 139.636h232.727C4033.359 395.636 4096 332.995 4096 256s-62.641-139.636-139.636-139.636z" fill="#9bcc78"/><path d="M3828.619 139.636c-30.85 0-60.468 12.268-82.282 34.082-21.814 21.814-34.082 51.432-34.082 82.282 0 30.85 12.268 60.468 34.082 82.282 21.814 21.814 51.432 34.082 82.282 34.082 30.85 0 60.468-12.268 82.282-34.082 21.814-21.814 34.082-51.432 34.082-82.282 0-30.85-12.268-60.468-34.082-82.282-21.814-21.814-51.432-34.082-82.282-34.082z" fill="#ffffff"/><path d="M3828.619 395.636c-76.995 0-139.636-62.641-139.636-139.636s62.641-139.636 139.636-139.636S3968.256 179.005 3968.256 256s-62.641 139.636-139.637 139.636zm0-232.727c-51.33 0-93.091 41.761-93.091 93.091 0 51.33 41.761 93.091 93.091 93.091 51.33 0 93.091-41.761 93.091-93.091 0-51.33-41.76-93.091-93.091-93.091z" fill="#a9a8ae"/><path d="M4468.364 116.364h-232.728C4158.641 116.364 4096 179.005 4096 256s62.641 139.636 139.636 139.636h232.727C4545.359 395.636 4608 332.995 4608 256s-62.641-139.636-139.636-139.636z" fill="#97c479"/><path d="M4301.514 139.636c-30.85 0-60.468 12.268-82.282 34.082-21.814 21.814-34.082 51.432-34.082 82.282 0 30.85 12.268 60.468 34.082 82.282 21.814 21.814 51.432 34.082 82.282 34.082 30.85 0 60.468-12.268 82.282-34.082 21.814-21.814 34.082-51.432 34.082-82.282 0-30.85-12.268-60.468-34.082-82.282-21.814-21.814-51.432-34.082-82.282-34.082z" fill="#ffffff"/><path d="M4301.514 395.636c-76.995 0-139.636-62.641-139.636-139.636s62.641-139.636 139.636-139.636S4441.151 179.005 4441.151 256s-62.641 139.636-139.637 139.636zm0-232.727c-51.33 0-93.091 41.761-93.091 93.091 0 51.33 41.761 93.091 93.091 93.091 51.33 0 93.091-41.761 93.091-93.091 0-51.33-41.76-93.091-93.091-93.091z" fill="#a9a8ae"/><path d="M4980.364 116.364h-232.728C4670.641 116.364 4608 179.005 4608 256s62.641 139.636 139.636 139.636h232.727C5057.359 395.636 5120 332.995 5120 256s-62.641-139.636-139.636-139.636z" fill="#93ba79"/><path d="M4769.194 139.636c-30.85 0-60.468 12.268-82.282 34.082-21.814 21.814-34.082 51.432-34.082 82.282 0 30.85 12.268 60.468 34.082 82.282 21.814 21.814 51.432 34.082 82.282 34.082 30.85 0 60.468-12.268 82.282-34.082 21.814-21.814 34.082-51.432 34.082-82.282 0-30.85-12.268-60.468-34.082-82.282-21.814-21.814-51.432-34.082-82.282-34.082z" fill="#ffffff"/><path d="M4769.194 395.636c-76.995 0-139.636-62.641-139.636-139.636s62.641-139.636 139.636-139.636S4908.831 179.005 4908.831 256s-62.641 139.636-139.637 139.636zm0-232.727c-51.33 0-93.091 41.761-93.091 93.091 0 51.33 41.761 93.091 93.091 93.091 51.33 0 93.091-41.761 93.091-93.091 0-51.33-41.76-93.091-93.091-93.091z" fill="#a9a8ae"/><path d="M5492.364 116.364h-232.728C5182.641 116.364 5120 179.005 5120 256s62.641 139.636 139.636 139.636h232.727C5569.359 395.636 5632 332.995 5632 256s-62.641-139.636-139.636-139.636z" fill="#8fb07a"/><path d="M5273.738 139.636c-30.85 0-60.468 12.268-82.282 34.082-21.814 21.814-34.082 51.432-34.082 82.282 0 30.85 12.268 60.468 34.082 82.282 21.814 21.814 51.432 34.082 82.282 34.082 30.85 0 60.468-12.268 82.282-34.082 21.814-21.814 34.082-51.432 34.082-82.282 0-30.85-12.268-60.468-34.082-82.282-21.814-21.814-51.432-34.082-82.282-34.082z" fill="#ffffff"/><path d="M5273.738 395.636c-76.995 0-139.636-62.641-139.636-139.636s62.641-139.636 139.636-139.636S5413.375 179.005 5413.375 256s-62.641 139.636-139.637 139.636zm0-232.727c-51.33 0-93.091 41.761-93.091 93.091 0 51.33 41.761 93.091 93.091 93.091 51.33 0 93.091-41.761 93.091-93.091 0-51.33-41.76-93.091-93.091-93.091z" fill="#a9a8ae"/><g><path d="M6004.364 116.364h-232.728C5694.641 116.364 5632 179.005 5632 256s62.641 139.636 139.636 139.636h232.727C6081.359 395.636 6144 332.995 6144 256s-62.641-139.636-139.636-139.636z" fill="#8ca77b"/><path d="M5807.236 139.636c-30.85 0-60.468 12.268-82.282 34.082-21.814 21.814-34.082 51.432-34.082 82.282 0 30.85 12.268 60.468 34.082 82.282 21.814 21.814 51.432 34.082 82.282 34.082 30.85 0 60.468-12.268 82.282-34.082 21.814-21.814 34.082-51.432 34.082-82.282 0-30.85-12.268-60.468-34.082-82.282-21.814-21.814-51.432-34.082-82.282-34.082z" fill="#ffffff"/><path d="M5807.236 395.636c-76.995 0-139.636-62.641-139.636-139.636s62.641-139.636 139.636-139.636S5946.872 179.005 5946.872 256s-62.641 139.636-139.636 139.636zm0-232.727c-51.33 0-93.091 41.761-93.091 93.091 0 51.33 41.761 93.091 93.091 93.091 51.33 0 93.091-41.761 93.091-93.091 0-51.33-41.761-93.091-93.091-93.091z" fill="#a9a8ae"/></g><g><path d="M6516.364 116.364h-232.728C6206.641 116.364 6144 179.005 6144 256s62.641 139.636 139.636 139.636h232.727C6593.359 395.636 6656 332.995 6656 256s-62.641-139.636-139.636-139.636z" fill="#889f7c"/><path d="M6335.519 139.636c-30.85 0-60.468 12.268-82.282 34.082-21.814 21.814-34.082 51.432-34.082 82.282 0 30.85 12.268 60.468 34.082 82.282 21.814 21.814 51.432 34.082 82.282 34.082 30.85 0 60.468-12.268 82.282-34.082 21.814-21.814 34.082-51.432 34.082-82.282 0-30.85-12.268-60.468-34.082-82.282-21.814-21.814-51.432-34.082-82.282-34.082z" fill="#ffffff"/><path d="M6335.519 395.636c-76.995 0-139.636-62.641-139.636-139.636s62.641-139.636 139.636-139.636S6475.155 179.005 6475.155 256s-62.641 139.636-139.636 139.636zm0-232.727c-51.33 0-93.091 41.761-93.091 93.091 0 51.33 41.761 93.091 93.091 93.091 51.33 0 93.091-41.761 93.091-93.091 0-51.33-41.761-93.091-93.091-93.091z" fill="#a9a8ae"/></g><g><path d="M7028.364 116.364h-232.728C6718.641 116.364 6656 179.005 6656 256s62.641 139.636 139.636 139.636h232.727C7105.359 395.636 7168 332.995 7168 256s-62.641-139.636-139.636-139.636z" fill="#86987c"/><path d="M6858.588 139.636c-30.85 0-60.468 12.268-82.282 34.082-21.814 21.814-34.082 51.432-34.082 82.282 0 30.85 12.268 60.468 34.082 82.282 21.814 21.814 51.432 34.082 82.282 34.082 30.85 0 60.468-12.268 82.282-34.082 21.814-21.814 34.082-51.432 34.082-82.282 0-30.85-12.268-60.468-34.082-82.282-21.814-21.814-51.432-34.082-82.282-34.082z" fill="#ffffff"/><path d="M6858.588 395.636c-76.995 0-139.636-62.641-139.636-139.636s62.641-139.636 139.636-139.636S6998.224 179.005 6998.224 256s-62.641 139.636-139.636 139.636zm0-232.727c-51.33 0-93.091 41.761-93.091 93.091 0 51.33 41.761 93.091 93.091 93.091 51.33 0 93.091-41.761 93.091-93.091 0-51.33-41.761-93.091-93.091-93.091z" fill="#a9a8ae"/></g><g><path d="M7540.364 116.364h-232.728C7230.641 116.364 7168 179.005 7168 256s62.641 139.636 139.636 139.636h232.727C7617.359 395.636 7680 332.995 7680 256s-62.641-139.636-139.636-139.636z" fill="#83927d"/><path d="M7376.443 139.636c-30.85 0-60.468 12.268-82.282 34.082-21.814 21.814-34.082 51.432-34.082 82.282 0 30.85 12.268 60.468 34.082 82.282 21.814 21.814 51.432 34.082 82.282 34.082 30.85 0 60.468-12.268 82.282-34.082 21.814-21.814 34.082-51.432 34.082-82.282 0-30.85-12.268-60.468-34.082-82.282-21.814-21.814-51.432-34.082-82.282-34.082z" fill="#ffffff"/><path d="M7376.443 395.636c-76.995 0-139.636-62.641-139.636-139.636s62.641-139.636 139.636-139.636S7516.079 179.005 7516.079 256s-62.641 139.636-139.636 139.636zm0-232.727c-51.33 0-93.091 41.761-93.091 93.091 0 51.33 41.761 93.091 93.091 93.091 51.33 0 93.091-41.761 93.091-93.091 0-51.33-41.761-93.091-93.091-93.091z" fill="#a9a8ae"/></g><g><path d="M8052.364 116.364h-232.728C7742.641 116.364 7680 179.005 7680 256s62.641 139.636 139.636 139.636h232.727C8129.359 395.636 8192 332.995 8192 256s-62.641-139.636-139.636-139.636z" fill="#818d7d"/><path d="M7889.084 139.636c-30.85 0-60.468 12.268-82.282 34.082-21.814 21.814-34.082 51.432-34.082 82.282 0 30.85 12.268 60.468 34.082 82.282 21.814 21.814 51.432 34.082 82.282 34.082 30.85 0 60.468-12.268 82.282-34.082 21.814-21.814 34.082-51.432 34.082-82.282 0-30.85-12.268-60.468-34.082-82.282-21.814-21.814-51.432-34.082-82.282-34.082z" fill="#ffffff"/><path d="M7889.084 395.636c-76.995 0-139.636-62.641-139.636-139.636s62.641-139.636 139.636-139.636S8028.72 179.005 8028.72 256s-62.641 139.636-139.636 139.636zm0-232.727c-51.33 0-93.091 41.761-93.091 93.091 0 51.33 41.761 93.091 93.091 93.091 51.33 0 93.091-41.761 93.091-93.091 0-51.33-41.761-93.091-93.091-93.091z" fill="#a9a8ae"/></g><g><path d="M8564.364 116.364h-232.728C8254.641 116.364 8192 179.005 8192 256s62.641 139.636 139.636 139.636h232.727C8641.359 395.636 8704 332.995 8704 256s-62.641-139.636-139.636-139.636z" fill="#7f897d"/><path d="M8396.511 139.636c-30.85 0-60.468 12.268-82.282 34.082-21.814 21.814-34.082 51.432-34.082 82.282 0 30.85 12.268 60.468 34.082 82.282 21.814 21.814 51.432 34.082 82.282 34.082 30.85 0 60.468-12.268 82.282-34.082 21.814-21.814 34.082-51.432 34.082-82.282 0-30.85-12.268-60.468-34.082-82.282-21.814-21.814-51.432-34.082-82.282-34.082z" fill="#ffffff"/><path d="M8396.511 395.636c-76.995 0-139.636-62.641-139.636-139.636s62.641-139.636 139.636-139.636S8536.147 179.005 8536.147 256s-62.641 139.636-139.636 139.636zm0-232.727c-51.33 0-93.091 41.761-93.091 93.091 0 51.33 41.761 93.091 93.091 93.091 51.33 0 93.091-41.761 93.091-93.091 0-51.33-41.761-93.091-93.091-93.091z" fill="#a9a8ae"/></g><g><path d="M9076.364 116.364h-232.728C8766.641 116.364 8704 179.005 8704 256s62.641 139.636 139.636 139.636h232.727C9153.359 395.636 9216 332.995 9216 256s-62.641-139.636-139.636-139.636z" fill="#7e867e"/><path d="M8898.723 139.636c-30.85 0-60.468 12.268-82.282 34.082-21.814 21.814-34.082 51.432-34.082 82.282 0 30.85 12.268 60.468 34.082 82.282 21.814 21.814 51.432 34.082 82.282 34.082 30.85 0 60.468-12.268 82.282-34.082 21.814-21.814 34.082-51.432 34.082-82.282 0-30.85-12.268-60.468-34.082-82.282-21.814-21.814-51.432-34.082-82.282-34.082z" fill="#ffffff"/><path d="M8898.723 395.636c-76.995 0-139.636-62.641-139.636-139.636s62.641-139.636 139.636-139.636S9038.36 179.005 9038.36 256s-62.641 139.636-139.637 139.636zm0-232.727c-51.33 0-93.091 41.761-93.091 93.091 0 51.33 41.761 93.091 93.091 93.091 51.33 0 93.091-41.761 93.091-93.091 0-51.33-41.76-93.091-93.091-93.091z" fill="#a9a8ae"/></g><g><path d="M9588.364 116.364h-232.728C9278.641 116.364 9216 179.005 9216 256s62.641 139.636 139.636 139.636h232.727C9665.359 395.636 9728 332.995 9728 256s-62.641-139.636-139.636-139.636z" fill="#7d837e"/><path d="M9395.722 139.636c-30.85 0-60.468 12.268-82.282 34.082-21.814 21.814-34.082 51.432-34.082 82.282 0 30.85 12.268 60.468 34.082 82.282 21.814 21.814 51.432 34.082 82.282 34.082 30.85 0 60.468-12.268 82.282-34.082 21.814-21.814 34.082-51.432 34.082-82.282 0-30.85-12.268-60.468-34.082-82.282-21.814-21.814-51.432-34.082-82.282-34.082z" fill="#ffffff"/><path d="M9395.722 395.636c-76.995 0-139.636-62.641-139.636-139.636s62.641-139.636 139.636-139.636S9535.359 179.005 9535.359 256s-62.641 139.636-139.637 139.636zm0-232.727c-51.33 0-93.091 41.761-93.091 93.091 0 51.33 41.761 93.091 93.091 93.091 51.33 0 93.091-41.761 93.091-93.091 0-51.33-41.76-93.091-93.091-93.091z" fill="#a9a8ae"/></g><g><path d="M10100.364 116.364h-232.728C9790.641 116.364 9728 179.005 9728 256s62.641 139.636 139.636 139.636h232.727c76.996 0 139.637-62.641 139.637-139.636s-62.641-139.636-139.636-139.636z" fill="#7b807e"/><path d="M9887.507 139.636c-30.85 0-60.468 12.268-82.282 34.082-21.814 21.814-34.082 51.432-34.082 82.282 0 30.85 12.268 60.468 34.082 82.282 21.814 21.814 51.432 34.082 82.282 34.082 30.85 0 60.468-12.268 82.282-34.082 21.814-21.814 34.082-51.432 34.082-82.282 0-30.85-12.268-60.468-34.082-82.282-21.814-21.814-51.432-34.082-82.282-34.082z" fill="#ffffff"/><path d="M9887.507 395.636c-76.995 0-139.636-62.641-139.636-139.636s62.641-139.636 139.636-139.636 139.637 62.641 139.637 139.636-62.641 139.636-139.637 139.636zm0-232.727c-51.33 0-93.091 41.761-93.091 93.091 0 51.33 41.761 93.091 93.091 93.091 51.33 0 93.091-41.761 93.091-93.091 0-51.33-41.76-93.091-93.091-93.091z" fill="#a9a8ae"/></g><g><path d="M10612.364 116.364h-232.728c-76.995 0-139.636 62.641-139.636 139.636s62.641 139.636 139.636 139.636h232.727c76.996 0 139.637-62.641 139.637-139.636s-62.641-139.636-139.636-139.636z" fill="#7b7e7e"/><path d="M10382.694 139.636c-30.85 0-60.468 12.268-82.282 34.082-21.814 21.814-34.082 51.432-34.082 82.282 0 30.85 12.268 60.468 34.082 82.282 21.814 21.814 51.432 34.082 82.282 34.082 30.85 0 60.468-12.268 82.282-34.082 21.814-21.814 34.082-51.432 34.082-82.282 0-30.85-12.268-60.468-34.082-82.282-21.814-21.814-51.432-34.082-82.282-34.082z" fill="#ffffff"/><path d="M10382.694 395.636c-76.995 0-139.636-62.641-139.636-139.636s62.641-139.636 139.636-139.636 139.637 62.641 139.637 139.636-62.641 139.636-139.637 139.636zm0-232.727c-51.33 0-93.091 41.761-93.091 93.091 0 51.33 41.761 93.091 93.091 93.091 51.33 0 93.091-41.761 93.091-93.091 0-51.33-41.76-93.091-93.091-93.091z" fill="#a9a8ae"/></g><g><path d="M11124.364 116.364h-232.728c-76.995 0-139.636 62.641-139.636 139.636s62.641 139.636 139.636 139.636h232.727c76.996 0 139.637-62.641 139.637-139.636s-62.641-139.636-139.636-139.636z" fill="#7a7c7e"/><path d="M10906.606 139.636c-30.85 0-60.468 12.268-82.282 34.082-21.814 21.814-34.082 51.432-34.082 82.282 0 30.85 12.268 60.468 34.082 82.282 21.814 21.814 51.432 34.082 82.282 34.082 30.85 0 60.468-12.268 82.282-34.082 21.814-21.814 34.082-51.432 34.082-82.282 0-30.85-12.268-60.468-34.082-82.282-21.814-21.814-51.432-34.082-82.282-34.082z" fill="#ffffff"/><path d="M10906.606 395.636c-76.995 0-139.636-62.641-139.636-139.636s62.641-139.636 139.636-139.636 139.637 62.641 139.637 139.636-62.641 139.636-139.637 139.636zm0-232.727c-51.33 0-93.091 41.761-93.091 93.091 0 51.33 41.761 93.091 93.091 93.091 51.33 0 93.091-41.761 93.091-93.091 0-51.33-41.76-93.091-93.091-93.091z" fill="#a9a8ae"/></g><g><path d="M11636.364 116.364h-232.728c-76.995 0-139.636 62.641-139.636 139.636s62.641 139.636 139.636 139.636h232.727c76.996 0 139.637-62.641 139.637-139.636s-62.641-139.636-139.636-139.636z" fill="#797a7f"/><path d="M11425.304 139.636c-30.85 0-60.468 12.268-82.282 34.082-21.814 21.814-34.082 51.432-34.082 82.282 0 30.85 12.268 60.468 34.082 82.282 21.814 21.814 51.432 34.082 82.282 34.082 30.85 0 60.468-12.268 82.282-34.082 21.814-21.814 34.082-51.432 34.082-82.282 0-30.85-12.268-60.468-34.082-82.282-21.814-21.814-51.432-34.082-82.282-34.082z" fill="#ffffff"/><path d="M11425.304 395.636c-76.995 0-139.636-62.641-139.636-139.636s62.641-139.636 139.636-139.636 139.637 62.641 139.637 139.636-62.641 139.636-139.637 139.636zm0-232.727c-51.33 0-93.091 41.761-93.091 93.091 0 51.33 41.761 93.091 93.091 93.091 51.33 0 93.091-41.761 93.091-93.091 0-51.33-41.76-93.091-93.091-93.091z" fill="#a9a8ae"/></g><g><path d="M12148.364 116.364h-232.728c-76.995 0-139.636 62.641-139.636 139.636s62.641 139.636 139.636 139.636h232.727c76.996 0 139.637-62.641 139.637-139.636s-62.641-139.636-139.636-139.636z" fill="#79797f"/><path d="M11938.788 139.636c-30.85 0-60.468 12.268-82.282 34.082-21.814 21.814-34.082 51.432-34.082 82.282 0 30.85 12.268 60.468 34.082 82.282 21.814 21.814 51.432 34.082 82.282 34.082 30.85 0 60.468-12.268 82.282-34.082 21.814-21.814 34.082-51.432 34.082-82.282 0-30.85-12.268-60.468-34.082-82.282-21.814-21.814-51.432-34.082-82.282-34.082z" fill="#ffffff"/><path d="M11938.788 395.636c-76.995 0-139.636-62.641-139.636-139.636s62.641-139.636 139.636-139.636 139.637 62.641 139.637 139.636-62.641 139.636-139.637 139.636zm0-232.727c-51.33 0-93.091 41.761-93.091 93.091 0 51.33 41.761 93.091 93.091 93.091 51.33 0 93.091-41.761 93.091-93.091 0-51.33-41.76-93.091-93.091-93.091z" fill="#a9a8ae"/></g><g><path d="M12660.364 116.364h-232.728c-76.995 0-139.636 62.641-139.636 139.636s62.641 139.636 139.636 139.636h232.727c76.996 0 139.637-62.641 139.637-139.636s-62.641-139.636-139.636-139.636z" fill="#78787f"/><path d="M12447.058 139.636c-30.85 0-60.468 12.268-82.282 34.082-21.814 21.814-34.082 51.432-34.082 82.282 0 30.85 12.268 60.468 34.082 82.282 21.814 21.814 51.432 34.082 82.282 34.082 30.85 0 60.468-12.268 82.282-34.082 21.814-21.814 34.082-51.432 34.082-82.282 0-30.85-12.268-60.468-34.082-82.282-21.814-21.814-51.432-34.082-82.282-34.082z" fill="#ffffff"/><path d="M12447.058 395.636c-76.995 0-139.636-62.641-139.636-139.636s62.641-139.636 139.636-139.636 139.637 62.641 139.637 139.636-62.641 139.636-139.637 139.636zm0-232.727c-51.33 0-93.091 41.761-93.091 93.091 0 51.33 41.761 93.091 93.091 93.091 51.33 0 93.091-41.761 93.091-93.091 0-51.33-41.76-93.091-93.091-93.091z" fill="#a9a8ae"/></g><g><path d="M13172.364 116.364h-232.728c-76.995 0-139.636 62.641-139.636 139.636s62.641 139.636 139.636 139.636h232.727c76.996 0 139.637-62.641 139.637-139.636s-62.641-139.636-139.636-139.636z" fill="#78777f"/><path d="M12950.114 139.636c-30.85 0-60.468 12.268-82.282 34.082-21.814 21.814-34.082 51.432-34.082 82.282 0 30.85 12.268 60.468 34.082 82.282 21.814 21.814 51.432 34.082 82.282 34.082 30.85 0 60.468-12.268 82.282-34.082 21.814-21.814 34.082-51.432 34.082-82.282 0-30.85-12.268-60.468-34.082-82.282-21.814-21.814-51.432-34.082-82.282-34.082z" fill="#ffffff"/><path d="M12950.114 395.636c-76.995 0-139.636-62.641-139.636-139.636s62.641-139.636 139.636-139.636 139.637 62.641 139.637 139.636-62.641 139.636-139.637 139.636zm0-232.727c-51.33 0-93.091 41.761-93.091 93.091 0 51.33 41.761 93.091 93.091 93.091 51.33 0 93.091-41.761 93.091-93.091 0-51.33-41.76-93.091-93.091-93.091z" fill="#a9a8ae"/></g><g><path d="M13684.364 116.364h-232.728c-76.995 0-139.636 62.641-139.636 139.636s62.641 139.636 139.636 139.636h232.727c76.996 0 139.637-62.641 139.637-139.636s-62.641-139.636-139.636-139.636z" fill="#77767f"/><path d="M13453.998 139.636c-30.85 0-60.468 12.268-82.282 34.082-21.814 21.814-34.082 51.432-34.082 82.282 0 30.85 12.268 60.468 34.082 82.282 21.814 21.814 51.432 34.082 82.282 34.082 30.85 0 60.468-12.268 82.282-34.082 21.814-21.814 34.082-51.432 34.082-82.282 0-30.85-12.268-60.468-34.082-82.282-21.814-21.814-51.432-34.082-82.282-34.082z" fill="#ffffff"/><path d="M13453.998 395.636c-76.995 0-139.636-62.641-139.636-139.636s62.641-139.636 139.636-139.636 139.637 62.641 139.637 139.636-62.641 139.636-139.637 139.636zm0-232.727c-51.33 0-93.091 41.761-93.091 93.091 0 51.33 41.761 93.091 93.091 93.091 51.33 0 93.091-41.761 93.091-93.091 0-51.33-41.76-93.091-93.091-93.091z" fill="#a9a8ae"/></g><g><path d="M14196.364 116.364h-232.728c-76.995 0-139.636 62.641-139.636 139.636s62.641 139.636 139.636 139.636h232.727c76.996 0 139.637-62.641 139.637-139.636s-62.641-139.636-139.636-139.636z" fill="#77767f"/><path d="M13973.225 139.636c-30.85 0-60.468 12.268-82.282 34.082-21.814 21.814-34.082 51.432-34.082 82.282 0 30.85 12.268 60.468 34.082 82.282 21.814 21.814 51.432 34.082 82.282 34.082 30.85 0 60.468-12.268 82.282-34.082 21.814-21.814 34.082-51.432 34.082-82.282 0-30.85-12.268-60.468-34.082-82.282-21.814-21.814-51.432-34.082-82.282-34.082z" fill="#ffffff"/><path d="M13973.225 395.636c-76.995 0-139.636-62.641-139.636-139.636s62.641-139.636 139.636-139.636 139.637 62.641 139.637 139.636-62.641 139.636-139.637 139.636zm0-232.727c-51.33 0-93.091 41.761-93.091 93.091 0 51.33 41.761 93.091 93.091 93.091 51.33 0 93.091-41.761 93.091-93.091 0-51.33-41.76-93.091-93.091-93.091z" fill="#a9a8ae"/></g><g><path d="M14708.364 116.364h-232.728c-76.995 0-139.636 62.641-139.636 139.636s62.641 139.636 139.636 139.636h232.727c76.996 0 139.637-62.641 139.637-139.636s-62.641-139.636-139.636-139.636z" fill="#77757f"/><path d="M14487.239 139.636c-30.85 0-60.468 12.268-82.282 34.082-21.814 21.814-34.082 51.432-34.082 82.282 0 30.85 12.268 60.468 34.082 82.282 21.814 21.814 51.432 34.082 82.282 34.082 30.85 0 60.468-12.268 82.282-34.082 21.814-21.814 34.082-51.432 34.082-82.282 0-30.85-12.268-60.468-34.082-82.282-21.814-21.814-51.432-34.082-82.282-34.082z" fill="#ffffff"/><path d="M14487.239 395.636c-76.995 0-139.636-62.641-139.636-139.636s62.641-139.636 139.636-139.636 139.637 62.641 139.637 139.636-62.641 139.636-139.637 139.636zm0-232.727c-51.33 0-93.091 41.761-93.091 93.091 0 51.33 41.761 93.091 93.091 93.091 51.33 0 93.091-41.761 93.091-93.091 0-51.33-41.76-93.091-93.091-93.091z" fill="#a9a8ae"/></g><g><path d="M15220.364 116.364h-232.728c-76.995 0-139.636 62.641-139.636 139.636s62.641 139.636 139.636 139.636h232.727c76.996 0 139.637-62.641 139.637-139.636s-62.641-139.636-139.636-139.636z" fill="#77757f"/><path d="M14996.038 139.636c-30.85 0-60.468 12.268-82.282 34.082-21.814 21.814-34.082 51.432-34.082 82.282 0 30.85 12.268 60.468 34.082 82.282 21.814 21.814 51.432 34.082 82.282 34.082 30.85 0 60.468-12.268 82.282-34.082 21.814-21.814 34.082-51.432 34.082-82.282 0-30.85-12.268-60.468-34.082-82.282-21.814-21.814-51.432-34.082-82.282-34.082z" fill="#ffffff"/><path d="M14996.038 395.636c-76.995 0-139.636-62.641-139.636-139.636s62.641-139.636 139.636-139.636 139.637 62.641 139.637 139.636-62.641 139.636-139.637 139.636zm0-232.727c-51.33 0-93.091 41.761-93.091 93.091 0 51.33 41.761 93.091 93.091 93.091 51.33 0 93.091-41.761 93.091-93.091 0-51.33-41.76-93.091-93.091-93.091z" fill="#a9a8ae"/></g><g><path d="M15732.364 116.364h-232.728c-76.995 0-139.636 62.641-139.636 139.636s62.641 139.636 139.636 139.636h232.727c76.996 0 139.637-62.641 139.637-139.636s-62.641-139.636-139.636-139.636z" fill="#77757f"/><path d="M15499.636 139.636c-30.85 0-60.468 12.268-82.282 34.082-21.814 21.814-34.082 51.432-34.082 82.282 0 30.85 12.268 60.468 34.082 82.282 21.814 21.814 51.432 34.082 82.282 34.082 30.85 0 60.468-12.268 82.282-34.082C15603.732 316.468 15616 286.85 15616 256c0-30.85-12.268-60.468-34.082-82.282-21.814-21.814-51.432-34.082-82.282-34.082z" fill="#ffffff"/><path d="M15499.636 395.636c-76.995 0-139.636-62.641-139.636-139.636s62.641-139.636 139.636-139.636 139.637 62.641 139.637 139.636-62.641 139.636-139.637 139.636zm0-232.727c-51.33 0-93.091 41.761-93.091 93.091 0 51.33 41.761 93.091 93.091 93.091 51.33 0 93.091-41.761 93.091-93.091 0-51.33-41.76-93.091-93.091-93.091z" fill="#a9a8ae"/></g></svg>